<?xml version="1.0" encoding="utf-8"?>
<!-- Generator: Adobe Illustrator 21.0.0, SVG Export Plug-In . SVG Version: 6.00 Build 0)  -->
<svg version="1.1" id="new-voyager" xmlns="http://www.w3.org/2000/svg" xmlns:xlink="http://www.w3.org/1999/xlink" x="0px"
	 y="0px" viewBox="0 0 431.7 433.3" style="enable-background:new 0 0 431.7 433.3;" xml:space="preserve">
<g>
	<path d="M429.9,375.9l-95.7-95.7c-1.1-1.1-2.7-1.8-4.2-1.8c-1.6,0-3.1,0.6-4.2,1.8l-6.5,6.5l-10.1-10.1l2.9-2.9
		c4.7-4.7,4.7-12.3,0-17l-2.6-2.6c0.2-0.6,0.4-1.3,0.4-2.1v-39.8c22.9,15.1,46.9,23.5,67.7,23.5c4.8,0,9.5-0.5,13.9-1.4
		c4.3-0.9,7.8-4.1,9.1-8.3c1.3-4.2,0.1-8.8-3-11.9l-53.1-53.1v-24.3c1.2,0.2,2.5,0.4,3.8,0.4c5.1,0,9.9-2,13.5-5.6
		c3.6-3.6,5.6-8.4,5.6-13.5s-2-9.9-5.6-13.5c-3.6-3.6-8.4-5.6-13.5-5.6s-9.9,2-13.5,5.6s-5.6,8.4-5.6,13.5c0,1.3,0.1,2.5,0.4,3.8
		h-24.3c0,0,0,0,0,0l-53.1-53.1c-2.3-2.3-5.3-3.5-8.5-3.5c-1.1,0-2.3,0.2-3.4,0.5c-4.2,1.3-7.4,4.7-8.3,9.1
		c-4.9,23.5,3.4,53.2,22.2,81.6h-39.8c-0.5,0-1,0.1-1.5,0.2c3.3-5.3,2.7-12.4-1.9-17c-1.9-1.9-4.2-3.1-6.7-3.7L177.6,25.2
		c0.4-0.3,0.8-0.7,1.2-1.1c5.5-5.5,5.5-14.5,0-20c-5.5-5.5-14.5-5.5-20,0c-5.5,5.5-5.5,14.5,0,20c2,2,4.5,3.3,7.1,3.8l26.2,110.6
		c-0.3,0.3-0.7,0.6-1,0.9c-5.3,5.3-5.3,14,0,19.3c0.3,0.3,0.7,0.6,1,0.9l-32.4,32.4c-0.3-0.4-0.6-0.7-0.9-1c-5.3-5.3-14-5.3-19.3,0
		c-0.3,0.3-0.6,0.7-0.9,1L28,165.9c-0.5-2.6-1.8-5.1-3.8-7.1c-5.5-5.5-14.5-5.5-20,0c-5.5,5.5-5.5,14.5,0,20c2.8,2.8,6.4,4.1,10,4.1
		s7.2-1.4,10-4.1c0.4-0.4,0.7-0.8,1.1-1.2l110.7,26.2c0.5,2.4,1.8,4.8,3.7,6.7c2.7,2.7,6.2,4,9.7,4c2.1,0,4.2-0.5,6.1-1.5
		c0.1,0.1,0.2,0.2,0.3,0.3l99.9,99.9c2.3,2.3,5.4,3.5,8.5,3.5c3.1,0,6.1-1.2,8.5-3.5l3.4-3.4l10.1,10.1l-7.4,7.4
		c-1.1,1.1-1.8,2.7-1.8,4.2c0,1.6,0.6,3.1,1.8,4.2l95.7,95.7c0.3,0.3,0.6,0.5,0.9,0.8c0,0,0,0,0.1,0c0.3,0.2,0.6,0.4,1,0.5
		c0,0,0.1,0,0.1,0c0.3,0.1,0.7,0.2,1,0.3c0,0,0,0,0.1,0c0.4,0.1,0.7,0.1,1.1,0.1s0.7,0,1.1-0.1c0,0,0,0,0.1,0c0.4-0.1,0.7-0.2,1-0.3
		c0,0,0.1,0,0.1,0c0.3-0.1,0.7-0.3,1-0.5c0,0,0,0,0.1,0c0.7-0.4,1.2-1,1.7-1.7c0,0,0,0,0-0.1c0.2-0.3,0.4-0.6,0.5-1c0,0,0,0,0-0.1
		c0.1-0.3,0.2-0.7,0.3-1c0,0,0,0,0-0.1c0.1-0.4,0.1-0.7,0.1-1.1v-40.9h40.9c1.7,0,3.3-0.7,4.4-1.9c0,0,0.1,0,0.1-0.1
		C432.3,382.1,432.3,378.3,429.9,375.9z M372.5,374.4h-34.9v-34.9h34.9V374.4z M325.6,297.3v30.3h-30.3L325.6,297.3z M325.6,339.5
		v26.4l-26.4-26.4H325.6z M337.6,327.5v-26.9l26.9,26.9H337.6z M268.4,213.2h29.3v29.3L268.4,213.2z M264.9,171.1l30.1,30.1h-30.1
		V171.1z M328.8,145.7l3.4-3.4v6.8L328.8,145.7z M343,113c1.3-1.3,3.1-2.1,5-2.1c1.9,0,3.7,0.7,5,2.1c1.3,1.3,2.1,3.1,2.1,5
		c0,1.9-0.7,3.7-2.1,5c-1.3,1.3-3.1,2.1-5,2.1c-1.9,0-3.7-0.7-5-2.1c-1.3-1.3-2.1-3.1-2.1-5C340.9,116.1,341.6,114.3,343,113z
		 M323.8,133.8l-3.4,3.4l-3.4-3.4H323.8z M243.3,77.1l145.6,145.6c-3.6,0.7-7.5,1.1-11.5,1.1c-21.7,0-48.5-10.8-73.4-30.5
		l-31.4-31.4C249.4,132.5,238.5,100.4,243.3,77.1z M252.9,197.6l-29.3-29.3h29.3V197.6z M164.1,204.9l39.5-39.5l99.9,99.9l-5.4,5.4
		c-0.8,0.3-1.5,0.7-2.1,1.3c-0.6,0.6-1,1.3-1.3,2.1l-21.3,21.3c-0.8,0.3-1.5,0.7-2.1,1.3c-0.6,0.6-1,1.3-1.3,2.1l-6,6L164.1,204.9z
		 M284.4,301.3l16.3-16.3l10.1,10.1l-16.3,16.3L284.4,301.3z M372.5,412.8l-26.4-26.4h26.4V412.8z M384.5,347.5l26.9,26.9h-26.9
		V347.5z"/>
	<path class="st0" d="M217.5,193.4C217.5,193.4,217.5,193.4,217.5,193.4c-5.2,0-10.2,1.5-14.5,4.5c-11.8,8-14.9,24.1-6.9,35.9
		c4.8,7.1,12.8,11.4,21.4,11.4c5.2,0,10.2-1.5,14.5-4.5c11.8-8,14.9-24.1,6.9-35.9C234.1,197.6,226.1,193.4,217.5,193.4z
		 M225.2,230.7c-2.4,1.6-5.1,2.4-7.8,2.4c-4.4,0-8.8-2.1-11.5-6.1c-4.3-6.3-2.6-14.9,3.7-19.2c2.4-1.6,5.1-2.4,7.8-2.4
		c4.4,0,8.8,2.1,11.5,6.1C233.2,217.8,231.6,226.4,225.2,230.7z"/>
</g>
</svg>
