<?xml version="1.0" encoding="utf-8"?>
<svg version="1.1" id="Layer_1" xmlns="http://www.w3.org/2000/svg" xmlns:xlink="http://www.w3.org/1999/xlink" x="0px" y="0px"
	 viewBox="0 0 490.8 438.1" style="enable-background:new 0 0 470.8 438.1;" xml:space="preserve">
<g>
	<path d="M334.2,285c-2.3-2.3-6.1-2.3-8.5,0l-6.5,6.5l-10.1-10.1l2.9-2.9c4.7-4.7,4.7-12.3,0-17l-2.6-2.6
		c0.2-0.6,0.4-1.3,0.4-2.1V217c22.9,15.1,46.9,23.5,67.7,23.5c4.8,0,9.5-0.5,13.9-1.4c4.3-0.9,7.8-4.1,9.1-8.3
		c1.3-4.2,0.1-8.8-3-11.9l-53.1-53.1v-24.3c1.2,0.2,2.5,0.4,3.7,0.4c5.1,0,9.9-2,13.5-5.6c7.5-7.5,7.5-19.6,0-27.1
		c-3.6-3.6-8.4-5.6-13.5-5.6c-5.1,0-9.9,2-13.5,5.6c0,0,0,0,0,0c-3.6,3.6-5.6,8.4-5.6,13.5c0,1.3,0.1,2.5,0.4,3.7h-24.3c0,0,0,0,0,0
		l-53.1-53.1c-2.3-2.3-5.3-3.5-8.5-3.5c-1.1,0-2.3,0.2-3.4,0.5c-4.2,1.3-7.4,4.7-8.3,9.1c-4.9,23.5,3.4,53.2,22.2,81.6h-39.8
		c-0.5,0-1,0.1-1.5,0.2c3.3-5.3,2.7-12.4-1.9-17c-1.9-1.9-4.2-3.1-6.7-3.7L177.6,30c0.4-0.3,0.8-0.7,1.2-1.1c5.5-5.5,5.5-14.5,0-20
		c-5.5-5.5-14.5-5.5-20,0c-5.5,5.5-5.5,14.5,0,20c2,2,4.5,3.3,7.1,3.8l26.2,110.6c-0.3,0.3-0.7,0.6-1,0.9c-5.3,5.3-5.3,14,0,19.3
		c0.3,0.3,0.7,0.6,1,0.9L159.8,197c-0.3-0.4-0.6-0.7-0.9-1c-5.3-5.3-14-5.3-19.3,0c-0.3,0.3-0.6,0.7-0.9,1L28,170.7
		c-0.6-2.7-1.9-5.1-3.8-7.1c-5.5-5.5-14.5-5.5-20,0c0,0,0,0,0,0c-2.7,2.7-4.1,6.2-4.1,10c0,3.8,1.5,7.3,4.1,10
		c2.8,2.8,6.4,4.1,10,4.1c3.6,0,7.2-1.4,10-4.1c0.4-0.4,0.7-0.8,1.1-1.2l110.7,26.2c0.5,2.4,1.8,4.8,3.7,6.7c2.7,2.7,6.2,4,9.7,4
		c2.1,0,4.2-0.5,6.1-1.5c0.1,0.1,0.2,0.2,0.3,0.3l99.9,99.9c2.3,2.3,5.3,3.5,8.5,3.5s6.2-1.3,8.5-3.5l3.4-3.4l10.1,10.1l-7.4,7.4
		c-2.3,2.3-2.3,6.1,0,8.5l95.7,95.7c0.3,0.3,0.6,0.5,0.9,0.8c0,0,0,0,0.1,0c0.3,0.2,0.6,0.4,1,0.5c0,0,0.1,0,0.1,0
		c0.3,0.1,0.7,0.2,1,0.3c0,0,0,0,0.1,0c0.4,0.1,0.7,0.1,1.1,0.1s0.7,0,1.1-0.1c0,0,0,0,0.1,0c0.4-0.1,0.7-0.2,1-0.3c0,0,0.1,0,0.1,0
		c0.3-0.1,0.7-0.3,1-0.5c0,0,0,0,0.1,0c0.7-0.4,1.2-1,1.7-1.7c0,0,0,0,0-0.1c0.2-0.3,0.4-0.6,0.5-1c0,0,0,0,0-0.1
		c0.1-0.3,0.2-0.7,0.3-1c0,0,0,0,0-0.1c0.1-0.4,0.1-0.7,0.1-1.1v-40.9h40.9c1.7,0,3.3-0.7,4.4-1.9c0,0,0.1,0,0.1-0.1
		c2.3-2.3,2.3-6.1,0-8.5L334.2,285z M372.5,379.2h-34.9v-34.9h34.9V379.2z M325.7,302v30.3h-30.3L325.7,302z M325.7,344.3v26.4
		l-26.4-26.4H325.7z M337.7,332.3v-26.9l26.9,26.9H337.7z M268.4,217.9h29.3v29.3L268.4,217.9z M264.9,175.9l30.1,30.1h-30.1V175.9z
		 M328.8,150.4l3.4-3.4v6.8L328.8,150.4z M343,117.7L343,117.7c1.3-1.3,3.1-2.1,5-2.1c1.9,0,3.7,0.7,5,2.1c2.8,2.8,2.8,7.3,0,10.1
		c-1.3,1.3-3.1,2.1-5,2.1c-1.9,0-3.7-0.7-5-2.1s-2.1-3.1-2.1-5S341.6,119.1,343,117.7z M323.8,138.5l-3.4,3.4l-3.4-3.4H323.8z
		 M243.3,81.9l145.6,145.6c-3.6,0.7-7.5,1.1-11.5,1.1c-21.7,0-48.5-10.8-73.4-30.5l-31.4-31.4C249.4,137.3,238.5,105.1,243.3,81.9z
		 M252.9,202.4L223.5,173h29.3V202.4z M164.1,209.6l39.5-39.5l99.9,99.9l-5.4,5.4c-0.8,0.3-1.5,0.7-2.1,1.3c-0.6,0.6-1,1.3-1.3,2.1
		l-21.3,21.3c-0.8,0.3-1.5,0.7-2.1,1.3c-0.6,0.6-1,1.3-1.3,2.1l-6,6L164.1,209.6z M284.4,306.1l16.3-16.3l10.1,10.1l-16.3,16.3
		L284.4,306.1z M372.5,417.6l-26.4-26.4h26.4V417.6z M384.5,352.3l26.9,26.9h-26.9V352.3z"/>
	<path d="M217.5,198.2C217.5,198.2,217.5,198.2,217.5,198.2c-5.2,0-10.2,1.5-14.5,4.5c-11.8,8-14.9,24.1-6.9,35.9
		c4.8,7.1,12.8,11.4,21.4,11.4c5.2,0,10.2-1.5,14.5-4.5c5.7-3.9,9.6-9.7,10.9-16.5c1.3-6.8-0.1-13.7-4-19.4
		C234.1,202.4,226.1,198.2,217.5,198.2z M225.3,235.5c-2.4,1.6-5.1,2.4-7.8,2.4c-4.4,0-8.8-2.1-11.5-6.1c-4.3-6.3-2.6-14.9,3.7-19.2
		c2.4-1.6,5.1-2.4,7.8-2.4c4.4,0,8.8,2.1,11.5,6.1C233.2,222.6,231.6,231.2,225.3,235.5z"/>
	<path class="voyager-signal1" d="M369.5,101.3c5.1,5.1,10.3,9.4,14.6,12.2c2.6,1.7,5.9,3.6,8.9,3.6c1.4,0,2.6-0.4,3.7-1.4
		c5.8-5.8-8.1-20.9-14.3-27.2c-5.1-5.1-10.3-9.4-14.6-12.2c-3.8-2.5-9.3-5.4-12.5-2.1l0,0C349.4,79.9,363.3,95,369.5,101.3z
		 M377.4,93.4c6.6,6.6,10.6,12,12.4,15.4c-3.3-1.9-8.8-5.9-15.4-12.4c-6.6-6.6-10.6-12-12.4-15.4C365.4,82.8,370.8,86.8,377.4,93.4z
		"/>
	<path class="voyager-signal2" d="M390,80.8c4.4,4.4,24.2,23.6,34.7,23.6c1.7,0,3.1-0.5,4.2-1.6c8.1-8.1-16.9-33.9-22-39
		c-5.1-5.1-30.9-30.1-39-22c-3.1,3.1-2,8.4,3.5,16.8C375.8,65.3,382.4,73.1,390,80.8z M402,68.7c13.9,13.9,20.4,24.6,21.4,28.5
		c-3.9-1.1-14.6-7.5-28.5-21.4c-13.9-13.9-20.4-24.6-21.4-28.5C377.5,48.4,388.1,54.8,402,68.7z"/>
	<path class="voyager-signal3" d="M462.5,67c-6.5-9.2-16.2-20.4-27.3-31.5C424.2,24.5,413,14.8,403.8,8.3c-11.5-8.1-18-10.1-21.5-6.6
		c-3.5,3.5-1.5,9.9,6.6,21.5c6.5,9.2,16.2,20.4,27.3,31.5c11.1,11.1,22.3,20.8,31.5,27.3c7.9,5.6,13.4,8.3,17.2,8.3
		c1.7,0,3.1-0.6,4.2-1.7C472.6,85,470.7,78.6,462.5,67z M421.1,49.7C399.4,28,389.3,12.4,387.8,7.2c5.2,1.5,20.8,11.6,42.5,33.3
		C452,62.2,462,77.8,463.6,83C458.4,81.4,442.8,71.4,421.1,49.7z"/>
</g>
</svg>
