<svg viewBox="-50 -50 580 700" xmlns="http://www.w3.org/2000/svg">
  <path
    style="fill: #f74036"
    d="M481.249,420.625l-219-380c-4-7-11-11-19-11s-15,4-19,11l-221,382c-10,17,5,33,19,33h442
        c12,0,21-10,21-22C485.249,428.625,484.249,424.625,481.249,420.625z M60.249,411.625l183-317l183,317H60.249z"
  />
  <path
    style="fill: #f74036"
    d="M221.249,192.625v97c0,12,10,22,22,22s22-10,22-22v-97c0-12-10-22-22-22
        S221.249,180.625,221.249,192.625z"
  />
  <path
    style="fill: #f74036"
    d="M243.249,330.625c-15,0-27,12-27,27s12,28,27,28s27-13,27-28S258.249,330.625,243.249,330.625z"
  />
</svg>
