<svg
  xmlns="http://www.w3.org/2000/svg"
  xml:space="preserve"
  style="enable-background: new 0 0 431.7 433.3"
  viewBox="0 0 431.7 433.3"
>
  <path
    d="m429.9 375.9-95.7-95.7c-1.1-1.1-2.7-1.8-4.2-1.8-1.6 0-3.1.6-4.2 1.8l-6.5 6.5-10.1-10.1 2.9-2.9c4.7-4.7 4.7-12.3 0-17l-2.6-2.6c.2-.6.4-1.3.4-2.1v-39.8c22.9 15.1 46.9 23.5 67.7 23.5 4.8 0 9.5-.5 13.9-1.4 4.3-.9 7.8-4.1 9.1-8.3 1.3-4.2.1-8.8-3-11.9L344.5 161v-24.3c1.2.2 2.5.4 3.8.4 5.1 0 9.9-2 13.5-5.6 3.6-3.6 5.6-8.4 5.6-13.5s-2-9.9-5.6-13.5c-3.6-3.6-8.4-5.6-13.5-5.6s-9.9 2-13.5 5.6-5.6 8.4-5.6 13.5c0 1.3.1 2.5.4 3.8h-24.3l-53.1-53.1c-2.3-2.3-5.3-3.5-8.5-3.5-1.1 0-2.3.2-3.4.5-4.2 1.3-7.4 4.7-8.3 9.1-4.9 23.5 3.4 53.2 22.2 81.6h-39.8c-.5 0-1 .1-1.5.2 3.3-5.3 2.7-12.4-1.9-17-1.9-1.9-4.2-3.1-6.7-3.7L177.6 25.2c.4-.3.8-.7 1.2-1.1 5.5-5.5 5.5-14.5 0-20s-14.5-5.5-20 0-5.5 14.5 0 20c2 2 4.5 3.3 7.1 3.8l26.2 110.6c-.3.3-.7.6-1 .9-5.3 5.3-5.3 14 0 19.3.3.3.7.6 1 .9L159.7 192c-.3-.4-.6-.7-.9-1-5.3-5.3-14-5.3-19.3 0-.3.3-.6.7-.9 1L28 165.9c-.5-2.6-1.8-5.1-3.8-7.1-5.5-5.5-14.5-5.5-20 0s-5.5 14.5 0 20c2.8 2.8 6.4 4.1 10 4.1s7.2-1.4 10-4.1c.4-.4.7-.8 1.1-1.2L136 203.8c.5 2.4 1.8 4.8 3.7 6.7 2.7 2.7 6.2 4 9.7 4 2.1 0 4.2-.5 6.1-1.5l.3.3 99.9 99.9c2.3 2.3 5.4 3.5 8.5 3.5 3.1 0 6.1-1.2 8.5-3.5l3.4-3.4 10.1 10.1-7.4 7.4c-1.1 1.1-1.8 2.7-1.8 4.2 0 1.6.6 3.1 1.8 4.2l95.7 95.7c.3.3.6.5.9.8h.1c.3.2.6.4 1 .5h.1c.3.1.7.2 1 .3h.1c.4.1.7.1 1.1.1s.7 0 1.1-.1h.1c.4-.1.7-.2 1-.3h.1c.3-.1.7-.3 1-.5h.1c.7-.4 1.2-1 1.7-1.7v-.1c.2-.3.4-.6.5-1v-.1c.1-.3.2-.7.3-1v-.1c.1-.4.1-.7.1-1.1v-40.9h40.9c1.7 0 3.3-.7 4.4-1.9 0 0 .1 0 .1-.1 2.1-2.1 2.1-5.9-.3-8.3zm-57.4-1.5h-34.9v-34.9h34.9v34.9zm-46.9-77.1v30.3h-30.3l30.3-30.3zm0 42.2v26.4l-26.4-26.4h26.4zm12-12v-26.9l26.9 26.9h-26.9zm-69.2-114.3h29.3v29.3l-29.3-29.3zm-3.5-42.1 30.1 30.1h-30.1v-30.1zm63.9-25.4 3.4-3.4v6.8l-3.4-3.4zM343 113c1.3-1.3 3.1-2.1 5-2.1s3.7.7 5 2.1c1.3 1.3 2.1 3.1 2.1 5s-.7 3.7-2.1 5c-1.3 1.3-3.1 2.1-5 2.1s-3.7-.7-5-2.1c-1.3-1.3-2.1-3.1-2.1-5s.7-3.7 2.1-5zm-19.2 20.8-3.4 3.4-3.4-3.4h6.8zm-80.5-56.7 145.6 145.6c-3.6.7-7.5 1.1-11.5 1.1-21.7 0-48.5-10.8-73.4-30.5l-31.4-31.4c-23.2-29.4-34.1-61.5-29.3-84.8zm9.6 120.5-29.3-29.3h29.3v29.3zm-88.8 7.3 39.5-39.5 99.9 99.9-5.4 5.4c-.8.3-1.5.7-2.1 1.3-.6.6-1 1.3-1.3 2.1l-21.3 21.3c-.8.3-1.5.7-2.1 1.3-.6.6-1 1.3-1.3 2.1l-6 6-99.9-99.9zm120.3 96.4 16.3-16.3 10.1 10.1-16.3 16.3-10.1-10.1zm88.1 111.5-26.4-26.4h26.4v26.4zm12-65.3 26.9 26.9h-26.9v-26.9z"
  />
  <path
    d="M217.5 193.4c-5.2 0-10.2 1.5-14.5 4.5-11.8 8-14.9 24.1-6.9 35.9 4.8 7.1 12.8 11.4 21.4 11.4 5.2 0 10.2-1.5 14.5-4.5 11.8-8 14.9-24.1 6.9-35.9-4.8-7.2-12.8-11.4-21.4-11.4zm7.7 37.3c-2.4 1.6-5.1 2.4-7.8 2.4-4.4 0-8.8-2.1-11.5-6.1-4.3-6.3-2.6-14.9 3.7-19.2 2.4-1.6 5.1-2.4 7.8-2.4 4.4 0 8.8 2.1 11.5 6.1 4.3 6.3 2.7 14.9-3.7 19.2z"
    class="st0"
  />
</svg>
