<svg
  xmlns="http://www.w3.org/2000/svg"
  xml:space="preserve"
  width="18"
  height="18"
>
  <path
    fill="currentColor"
    d="m 14.980047,8.2499999 v 1.5000002 q 0,0.3046879 -0.222659,0.5273439 -0.222658,0.222654 -0.527343,0.222654 h -3.750001 v 3.75 q 0,0.304687 -0.222658,0.527344 Q 10.034732,15 9.7300439,15 H 8.2300441 Q 7.9253567,15 7.7027002,14.777342 7.4800418,14.554688 7.4800418,14.249998 V 10.5 H 3.7300445 Q 3.4253561,10.5 3.2027004,10.277346 2.9800444,10.054693 2.9800444,9.7500025 V 8.2499999 q 0,-0.3046875 0.222656,-0.5273435 0.222656,-0.2226583 0.527344,-0.2226583 H 7.4800446 V 3.75 q 0,-0.3046874 0.2226584,-0.5273438 0.2226537,-0.222656 0.527342,-0.222656 h 1.4999999 q 0.3046871,0 0.5273431,0.222656 Q 10.480046,3.4453127 10.480046,3.75 V 7.5 h 3.750001 q 0.304683,0 0.527345,0.2226583 0.222658,0.2226537 0.222655,0.5273416 z M 17.980044,14.625 V 3.375 q 0,-1.3945312 -0.990233,-2.38476562 Q 15.999575,0 14.605044,0 H 3.3550446 Q 1.9605134,0 0.97027837,0.99023438 -0.01995565,1.9804688 -0.01995565,3.375 v 11.25 q 0,1.394531 0.99023402,2.384766 Q 1.9605134,18 3.3550446,18 H 14.605044 q 1.394531,0 2.384767,-0.990234 0.990233,-0.990235 0.990233,-2.384766 z"
  />
</svg>
