<svg
  xmlns="http://www.w3.org/2000/svg"
  xml:space="preserve"
  width="18"
  height="18"
  fill="currentColor"
>
  <path
    d="m 15,8.25 v 1.5 q 0,0.304688 -0.222656,0.527344 Q 14.554688,10.5 14.25,10.5 H 3.75 Q 3.4453125,10.5 3.2226562,10.277344 3,10.054688 3,9.75 V 8.25 Q 3,7.9453125 3.2226562,7.7226563 3.4453125,7.5 3.75,7.5 h 10.5 q 0.304688,0 0.527344,0.2226563 Q 15,7.9453125 15,8.25 Z m 3,6.375 V 3.375 Q 18,1.9804688 17.009766,0.9902344 16.019531,0 14.625,0 H 3.375 Q 1.9804688,0 0.9902344,0.9902344 0,1.9804688 0,3.375 v 11.25 Q 0,16.019531 0.9902344,17.009766 1.9804688,18 3.375,18 h 11.25 q 1.394531,0 2.384766,-0.990234 Q 18,16.019531 18,14.625 Z"
  />
</svg>
